<svg width="40" height="28" viewBox="0 0 40 28" fill="none" xmlns="http://www.w3.org/2000/svg">
<path d="M8.81226 22.2123C17.5113 25.5917 24.9141 26.2499 33.3031 20.9899C33.2416 21.0817 31.5822 23.5289 27.2184 24.783C28.1403 26.0373 29.4003 27.475 29.4003 27.475C32.1968 27.475 34.9319 26.6796 37.2981 25.1501C39.142 23.9265 40.1868 21.8158 39.9717 19.6133C39.6029 15.8507 38.7117 12.1799 37.3289 8.66206C35.5772 4.07355 31.3671 0.892131 26.4809 0.433245C26.0506 0.40264 25.7433 0.40264 25.559 0.40264L25.0673 0.892041C30.6911 2.48275 33.4876 4.96054 33.549 5.05235C24.9136 0.708503 14.711 0.647385 6.01407 4.86882C6.01407 4.86882 8.77987 2.14628 14.8953 0.708504L14.5265 0.341431C13.8811 0.341431 13.2665 0.40264 12.6212 0.494363C8.10375 1.25911 4.3239 4.34872 2.69513 8.60076C1.28148 12.2716 0.359578 16.1259 0.0215621 20.0415C-0.162818 22.1216 0.820575 24.1712 2.54149 25.3643C4.81555 26.8631 7.51986 27.6585 10.2549 27.6585C10.2549 27.6585 11.3612 26.2207 12.4676 24.936C8.31887 23.7123 6.6287 21.2651 6.59796 21.1733L7.37872 21.5702C7.84547 21.8076 8.32398 22.0226 8.81226 22.2123ZM13.6353 19.5521C11.6378 19.4909 10.0705 17.8085 10.132 15.7895C10.1935 13.8929 11.7301 12.3634 13.6353 12.3022C15.6329 12.3634 17.2002 14.0458 17.1387 16.0648C17.0464 17.9615 15.5406 19.491 13.6353 19.5521ZM26.1735 19.5521C24.176 19.4909 22.6087 17.8085 22.6702 15.7895C22.7317 13.8929 24.2682 12.3634 26.1735 12.3022C28.171 12.3634 29.7383 14.0458 29.6768 16.0648C29.6154 17.9615 28.0788 19.491 26.1735 19.5521Z" fill="#7038FF"/>
</svg>
