<svg width="34" height="31" viewBox="0 0 34 31" fill="none" xmlns="http://www.w3.org/2000/svg">
<path d="M33.9984 15.4045C33.9134 13.3644 32.2133 11.7493 30.1306 11.7918C29.1956 11.8343 28.3455 12.2168 27.708 12.8119C24.8178 10.8142 21.3751 9.75167 17.8473 9.66666L19.5049 1.71863L24.9878 2.82371C25.1578 4.2263 26.3904 5.24637 27.793 5.07636C29.1956 4.90635 30.2156 3.67376 30.0456 2.27117C29.8756 0.868578 28.643 -0.15149 27.2404 0.018521C26.4329 0.103527 25.7103 0.571058 25.3278 1.2511L19.0799 0.018521C18.6549 -0.0664846 18.2298 0.188533 18.1448 0.613561L16.2747 9.49665C12.7045 9.53916 9.26175 10.6442 6.28655 12.6419C4.79895 11.2393 2.41879 11.2818 1.0162 12.8119C-0.386395 14.2995 -0.343891 16.6796 1.18621 18.0822C1.48373 18.3372 1.82375 18.5923 2.20628 18.7623C2.16378 19.1448 2.16378 19.5273 2.20628 19.8673C2.20628 25.6052 8.87922 30.2805 17.1248 30.2805C25.3703 30.2805 32.0433 25.6477 32.0433 19.8673C32.0858 19.4848 32.0858 19.1023 32.0433 18.7623C33.2333 18.1672 34.0409 16.8496 33.9984 15.4045ZM8.36919 17.9972C8.36919 16.5946 9.51677 15.447 10.9194 15.447C12.322 15.447 13.4695 16.5946 13.4695 17.9972C13.4695 19.3998 12.322 20.5474 10.9194 20.5474C9.51677 20.5474 8.36919 19.3998 8.36919 17.9972ZM23.2452 25.0527C21.4176 26.4128 19.2074 27.1353 16.9548 27.0078C14.7021 27.0928 12.4495 26.4128 10.6643 25.0527C10.4093 24.7552 10.4518 24.3301 10.7493 24.0751C11.0044 23.8626 11.3444 23.8626 11.6419 24.0751C13.172 25.1802 15.0421 25.7752 16.9548 25.6902C18.8674 25.7752 20.7375 25.2652 22.3101 24.1176C22.6076 23.8626 23.0327 23.8626 23.3302 24.1176C23.5852 24.4151 23.5852 24.8402 23.3302 25.1377V25.0527H23.2452ZM22.8202 20.6749C21.4176 20.6749 20.27 19.5273 20.27 18.1247C20.27 16.7221 21.4176 15.5746 22.8202 15.5746C24.2227 15.5746 25.3703 16.7221 25.3703 18.1247C25.4128 19.5273 24.3503 20.7174 22.9052 20.7599C22.8627 20.7599 22.8202 20.7599 22.7776 20.7599L22.8202 20.6749Z" fill="#7038FF"/>
</svg>
