<svg width="34" height="30" viewBox="0 0 34 30" fill="none" xmlns="http://www.w3.org/2000/svg">
<path d="M0.600541 14.393L8.43483 17.317L11.4672 27.069C11.6612 27.6936 12.425 27.9244 12.9319 27.51L17.2989 23.95C17.7566 23.577 18.4086 23.5584 18.887 23.9056L26.7635 29.6241C27.3058 30.0183 28.0741 29.7211 28.2101 29.0658L33.98 1.31148C34.1284 0.595668 33.4251 -0.001486 32.7435 0.262128L0.591361 12.6655C-0.202087 12.9715 -0.195173 14.0948 0.600541 14.393ZM10.9785 15.7605L26.2896 6.33034C26.5648 6.16136 26.8479 6.53344 26.6116 6.75262L13.9755 18.4985C13.5313 18.9119 13.2448 19.4652 13.1637 20.0658L12.7332 23.2557C12.6762 23.6816 12.0779 23.7239 11.9604 23.3117L10.3049 17.4948C10.1153 16.8314 10.3916 16.1227 10.9785 15.7605Z" fill="#7038FF"/>
</svg>
