<svg width="35" height="30" viewBox="0 0 35 30" fill="none" xmlns="http://www.w3.org/2000/svg">
<path d="M34.2133 3.73132C32.9328 4.33283 31.5751 4.72801 30.1848 4.90381C31.6522 3.97241 32.7509 2.50642 33.2767 0.778674C31.8991 1.64802 30.3914 2.26024 28.8192 2.58877C27.7627 1.38856 26.3625 0.592658 24.8363 0.324757C23.3101 0.0568564 21.7434 0.331959 20.3795 1.10731C19.0157 1.88267 17.9311 3.11485 17.2944 4.61237C16.6577 6.10989 16.5045 7.78888 16.8586 9.3884C14.0664 9.24039 11.3347 8.47036 8.84072 7.12827C6.34679 5.78618 4.14639 3.90204 2.38235 1.59814C1.48518 3.23988 1.21032 5.18295 1.61367 7.03226C2.01701 8.88157 3.06827 10.4983 4.55369 11.5537C3.43936 11.5162 2.3496 11.1964 1.37523 10.6208V10.7128C1.376 12.4358 1.93815 14.1054 2.9662 15.438C3.99426 16.7707 5.42487 17.6844 7.01509 18.0238C5.98111 18.3213 4.89698 18.3652 3.84468 18.1522C4.2917 19.6327 5.16286 20.9279 6.33648 21.8569C7.5101 22.786 8.92758 23.3025 10.3909 23.3343C7.44954 25.7863 3.71169 26.8969 -0.000488281 26.4217C3.20845 28.6142 6.94411 29.7782 10.7595 29.7745C13.3878 29.7938 15.9935 29.2582 18.4252 28.1987C20.8569 27.1392 23.0662 25.577 24.9247 23.6029C26.7832 21.6287 28.2539 19.2819 29.2513 16.6988C30.2487 14.1158 30.7529 11.3479 30.7347 8.5561C30.7347 8.23516 30.7347 7.91422 30.7125 7.59328C32.0862 6.54067 33.2723 5.23654 34.2153 3.74201L34.2133 3.73132Z" fill="#7038FF"/>
</svg>
