<svg width="21" height="21" viewBox="0 0 21 21" fill="none" xmlns="http://www.w3.org/2000/svg">
<path d="M18.8024 5.87381C18.816 5.74457 18.7447 5.62133 18.626 5.56851L16.482 4.61475C16.4142 4.5846 16.36 4.5304 16.3298 4.46263L15.3751 2.31755C15.3223 2.19887 15.1991 2.12766 15.0699 2.14116L12.7363 2.38487C12.6627 2.39255 12.5889 2.37278 12.529 2.32935L10.6302 0.952394C10.5252 0.876225 10.3831 0.876206 10.2781 0.952346L8.37811 2.3294C8.31823 2.3728 8.24443 2.39255 8.17088 2.38487L5.8385 2.14117C5.70928 2.12767 5.58605 2.19889 5.53323 2.31759L4.57931 4.46154C4.54916 4.52931 4.49498 4.5835 4.42721 4.61366L2.28211 5.56849C2.16343 5.62132 2.09223 5.74454 2.10574 5.87375L2.34958 8.20737C2.35727 8.28095 2.3375 8.35478 2.29407 8.41467L0.917116 10.3134C0.840947 10.4184 0.840927 10.5605 0.917067 10.6656L2.29411 12.5655C2.33752 12.6254 2.35727 12.6992 2.34958 12.7728L2.10575 15.1051C2.09224 15.2343 2.16347 15.3576 2.28219 15.4104L4.42625 16.3642C4.49402 16.3943 4.54822 16.4485 4.57839 16.5163L5.53322 18.6614C5.58605 18.7801 5.70925 18.8512 5.83846 18.8378L8.1721 18.594C8.24568 18.5864 8.3195 18.6061 8.37938 18.6496L10.2781 20.0265C10.3831 20.1027 10.5252 20.1027 10.6303 20.0266L12.5302 18.6495C12.5901 18.6061 12.6639 18.5864 12.7375 18.594L15.0698 18.8377C15.1991 18.8512 15.3223 18.78 15.3751 18.6613L16.3289 16.5172C16.359 16.4495 16.4132 16.3953 16.481 16.3651L18.6261 15.4104C18.7448 15.3576 18.816 15.2344 18.8025 15.1052L18.5586 12.7716C18.5509 12.698 18.5707 12.6241 18.6141 12.5642L19.9912 10.6655C20.0674 10.5605 20.0674 10.4184 19.9913 10.3133L18.6141 8.4134C18.5707 8.35352 18.5509 8.27971 18.5586 8.20614L18.8024 5.87381ZM8.73336 14.1432C8.6162 14.2604 8.42625 14.2604 8.30909 14.1432L5.99855 11.8327C5.88124 11.7154 5.88141 11.5251 5.99893 11.408L6.48582 10.9229C6.60297 10.8062 6.79247 10.8063 6.90951 10.9231L8.3091 12.3201C8.42629 12.4371 8.61609 12.437 8.73317 12.32L13.7761 7.27707C13.8932 7.15992 14.0831 7.15991 14.2003 7.27705L14.6877 7.7644C14.8049 7.88155 14.8049 8.07151 14.6878 8.18868L8.73336 14.1432Z" fill="#1E81CE"/>
</svg>
