<svg width="400" height="400" viewBox="0 0 400 400" fill="none" xmlns="http://www.w3.org/2000/svg">
<rect width="400" height="400" rx="30" fill="#6C2DF7"/>
<path fill-rule="evenodd" clip-rule="evenodd" d="M121.708 168.607C94.244 168.607 71.9279 146.26 71.9279 118.803C71.9279 91.3464 94.244 69 121.708 69C149.153 69 171.489 91.3464 171.489 118.803C171.489 146.26 149.153 168.607 121.708 168.607Z" fill="white"/>
<path fill-rule="evenodd" clip-rule="evenodd" d="M347.25 246.977C353.921 264.082 350.456 284.64 343.324 301.581C334.87 321.728 318.684 336.983 298.291 343.644C289.236 346.604 279.741 347.899 270.266 347.899H102.374C85.6669 347.899 70.883 343.89 58.7634 336.427C51.1711 331.74 49.8289 320.926 55.458 313.916C64.8733 302.197 74.1683 290.438 83.5435 278.575C101.412 255.879 113.452 249.3 126.834 255.077C132.262 257.462 137.711 261.039 143.32 264.822C158.264 274.978 179.038 288.937 206.402 273.785C225.233 263.239 236.11 245.106 245.606 229.379C249.492 223.005 253.178 216.632 257.465 210.855C261.912 204.873 278.399 186.164 299.753 199.486C313.355 207.874 324.794 219.223 337.034 231.373C341.701 236.019 345.027 241.303 347.25 246.977Z" fill="white"/>
</svg>
